<?xml version="1.0" encoding="UTF-8"?>
<svg width="505px" height="44px" viewBox="0 0 505 44" version="1.1" xmlns="http://www.w3.org/2000/svg" xmlns:xlink="http://www.w3.org/1999/xlink">
    <title>path13406</title>
    <g id="round3-mobile" stroke="none" stroke-width="1" fill="none" fill-rule="evenodd">
        <g id="文章推薦" transform="translate(-68.000000, -370.000000)" fill="#FFFFFF" fill-rule="nonzero">
            <path d="M569.450349,407.196342 C567.98408,407.196342 566.761268,408.419154 566.761268,410.069596 C566.761268,411.719246 567.98408,412.942059 569.450349,412.942059 C570.916617,412.942059 572.13943,411.719246 572.13943,410.069596 C572.13943,408.419154 570.916617,407.196342 569.450349,407.196342 M472.154944,412.757886 L484.499264,412.757886 L484.499264,411.658382 L483.156305,411.352482 C481.933492,411.046581 481.382555,410.374706 481.382555,408.66261 L481.382555,392.040423 L484.255808,392.040423 C486.027977,392.040423 486.944889,392.468051 487.066617,396.196562 L487.372518,404.018768 C487.616764,411.046581 489.63397,413.002923 493.057371,413.002923 C496.540055,413.002923 497.456966,410.618952 497.456966,407.257996 L497.456966,405.851801 L496.172499,405.851801 L496.172499,406.890441 C496.172499,409.152684 495.86818,410.741471 495.011341,410.741471 C494.217738,410.741471 494.156084,410.13046 493.972702,407.31886 L493.606727,401.941489 C493.117444,394.729504 492.200532,392.223805 486.883235,391.245239 C491.956286,389.901489 495.072996,386.172978 495.072996,380.85568 C495.072996,373.949596 489.63397,370.649504 484.439191,370.649504 L463.599209,370.649504 L463.599209,371.749798 L464.760367,371.994044 C466.960165,372.483327 467.021819,373.644485 467.021819,378.595018 L467.021819,402.918474 C467.021819,408.35829 465.493106,410.985717 462.008841,410.985717 C458.893713,410.985717 457.181617,409.457794 457.181617,403.529485 L457.181617,374.622261 C457.181617,372.910956 457.730974,372.422463 459.075514,372.116562 L460.725955,371.749798 L460.725955,370.649504 L447.954007,370.649504 L447.954007,371.749798 L449.296966,372.116562 C450.519779,372.483327 450.947407,372.97261 450.947407,374.683125 L450.947407,403.101857 C450.947407,409.518658 454.675918,413.063787 460.359981,413.063787 C466.043253,413.063787 468.854062,409.518658 468.854062,402.918474 L468.854062,376.39443 C468.854062,373.094338 469.527518,371.93318 472.215018,371.93318 C474.354742,371.93318 475.272444,372.66671 475.272444,374.683125 L475.272444,408.66261 C475.272444,410.374706 474.722297,410.985717 473.499485,411.291618 L472.154944,411.658382 L472.154944,412.757886 L472.154944,412.757886 Z M554.171121,374.683125 C554.171121,372.97261 554.722058,372.422463 555.94329,372.177426 L557.593731,371.810662 L557.593731,370.649504 L544.881856,370.649504 L544.881856,371.749798 L546.226396,372.116562 C547.449209,372.483327 547.998566,372.97261 547.998566,374.683125 L547.998566,408.908437 C547.998566,410.558088 547.327481,411.475 545.431213,411.475 C543.231415,411.475 542.925514,410.741471 542.131911,407.136268 L534.309705,370.527776 L531.86408,370.527776 L524.40943,405.97432 C523.552591,409.946287 523.124963,410.863989 521.474521,411.352482 L520.435091,411.658382 L520.435091,412.757886 L529.174999,412.757886 L529.174999,411.658382 L527.892113,411.413346 C526.05829,411.046581 525.569797,410.069596 526.486709,405.424173 L530.887095,382.750368 L535.714319,406.768713 C536.447849,410.252187 536.387775,410.924853 533.758768,411.413346 L532.475882,411.658382 L532.475882,412.757886 L564.86658,412.757886 L564.86658,398.823989 L563.705422,398.823989 C563.094411,405.24079 561.811525,411.291618 556.616746,411.291618 L554.171121,411.291618 L554.171121,374.683125 L554.171121,374.683125 Z M535.103308,401.390551 L535.103308,399.740901 L526.852683,399.740901 L526.609227,401.390551 L535.103308,401.390551 Z M501.001305,375.416654 L501.001305,404.629779 C501.001305,409.030165 501.001305,411.108235 498.801507,411.475 L497.701213,411.658382 L497.701213,412.757886 L506.684577,412.757886 L506.684577,411.658382 C502.773474,411.108235 502.773474,409.763695 502.773474,404.996544 L502.773474,377.250478 L501.307205,375.905937 L516.280532,412.757886 L518.846305,412.757886 L518.846305,378.778401 C518.846305,373.767004 518.846305,372.66671 521.29193,371.994044 L522.147187,371.749798 L522.147187,370.649504 L512.917996,370.649504 L512.917996,371.749798 L513.957426,371.994044 C517.074135,372.544191 517.074135,373.767004 517.074135,378.411636 L517.074135,399.679246 L517.685937,399.495864 L506.318602,370.649504 L497.578694,370.649504 L497.578694,371.749798 L498.433952,371.994044 C499.413308,372.299945 499.962665,373.400239 501.001305,375.416654 M481.382555,372.116562 L483.82818,372.116562 C486.272224,372.116562 488.533676,373.705349 488.533676,381.650864 C488.533676,389.778971 486.823161,390.573364 483.400551,390.573364 L481.382555,390.573364 L481.382555,372.116562 Z M440.681157,391.306893 C440.681157,408.968511 439.214099,411.475 436.035735,411.475 C432.858161,411.475 431.451966,408.968511 431.451966,391.428621 C431.451966,374.438879 432.98068,371.994044 436.035735,371.994044 C439.214099,371.994044 440.681157,374.438879 440.681157,391.306893 M447.342996,391.673658 C447.342996,380.000423 443.614485,370.344393 436.035735,370.344393 C428.396911,370.344393 424.790128,380.000423 424.790128,391.673658 C424.790128,403.407757 428.518639,413.063787 436.035735,413.063787 C443.797867,413.063787 447.342996,403.407757 447.342996,391.673658 M421.185716,374.683125 C421.185716,372.97261 421.613345,372.422463 422.834577,372.116562 L424.179117,371.749798 L424.179117,370.649504 L411.528896,370.649504 L411.528896,371.749798 L413.056029,372.116562 C414.278051,372.422463 414.951507,372.850092 414.951507,374.622261 L414.951507,404.018768 C414.951507,408.113254 414.583952,411.413346 411.528896,411.413346 C409.572555,411.413346 408.106286,409.885423 408.167941,408.785919 C408.349742,406.890441 411.528896,407.01375 411.773143,403.957114 C411.956525,401.757316 410.55033,400.840404 409.267444,400.657812 C407.372757,400.412776 405.051231,402.001562 404.988786,405.179926 C404.927132,409.274412 407.617003,413.002923 412.200771,413.002923 C417.273823,413.002923 421.185716,409.580312 421.185716,403.040202 L421.185716,374.683125 L421.185716,374.683125 Z M217.059816,374.683125 C217.059816,372.97261 217.609963,372.422463 218.831985,372.177426 L220.482426,371.810662 L220.482426,370.649504 L207.770551,370.649504 L207.770551,371.749798 L209.115091,372.116562 C210.337113,372.483327 210.88726,372.97261 210.88726,374.683125 L210.88726,408.908437 C210.88726,410.558088 210.214595,411.475 208.319907,411.475 C206.12011,411.475 205.753345,410.741471 204.958952,407.136268 L197.135955,370.527776 L194.691911,370.527776 L187.23568,405.97432 C186.380422,409.946287 185.952003,410.863989 184.302352,411.352482 L183.262922,411.658382 L183.262922,412.757886 L192.00283,412.757886 L192.00283,411.658382 L190.719154,411.413346 C188.886121,411.046581 188.396838,410.069596 189.313749,405.424173 L193.714135,382.627849 L198.54215,406.768713 C199.214025,410.252187 199.214025,410.924853 196.586599,411.413346 L195.302922,411.658382 L195.302922,412.757886 L227.755275,412.757886 L227.755275,398.823989 L226.594117,398.823989 C225.983106,405.24079 224.69943,411.291618 219.50465,411.291618 L217.059816,411.291618 L217.059816,374.683125 L217.059816,374.683125 Z M387.20386,372.116562 L388.549191,372.116562 C392.339356,372.116562 393.622242,378.166599 394.049871,384.584191 L395.210238,384.584191 L395.210238,370.649504 L373.025716,370.649504 L373.025716,384.584191 L374.186874,384.584191 C374.615293,378.166599 375.89897,372.116562 379.687555,372.116562 L381.032095,372.116562 L381.032095,408.66261 C381.032095,410.374706 380.482738,410.985717 379.259926,411.291618 L377.671139,411.658382 L377.671139,412.757886 L390.872297,412.757886 L390.872297,411.658382 L388.976819,411.230754 C387.815661,410.924853 387.20386,410.558088 387.20386,408.66261 L387.20386,372.116562 L387.20386,372.116562 Z M359.275202,391.612004 L361.169099,391.673658 C363.919834,391.734554 364.713437,392.773952 365.265165,399.43579 L366.425532,399.43579 L366.425532,382.445257 L365.265165,382.445257 C364.591709,387.762555 363.85818,390.023217 361.230753,390.084871 L359.275202,390.145767 L359.275202,372.116594 L363.492205,372.116594 C368.198492,372.116594 369.237132,378.044903 369.909007,384.584223 L371.070165,384.584223 L371.070165,370.649535 L349.985937,370.649535 L349.985937,371.749829 L351.330477,372.116594 C352.735091,372.483359 353.102646,373.339407 353.102646,374.744811 L353.102646,408.662642 C353.102646,410.374737 352.55329,410.985749 351.330477,411.291649 L349.985937,411.658414 L349.985937,412.757918 L371.681176,412.757918 L371.681176,398.824021 L370.520018,398.824021 C369.786488,405.179958 368.992095,411.291649 363.492205,411.291649 L359.275202,411.291649 L359.275202,391.612035 L359.275202,391.612004 Z M336.234632,391.612004 L338.129319,391.673658 C340.879264,391.734554 341.673657,392.773952 342.223805,399.43579 L343.384963,399.43579 L343.384963,382.445257 L342.223805,382.445257 C341.55193,387.762555 340.8184,390.023217 338.190974,390.084871 L336.234632,390.145767 L336.234632,372.116594 L340.451635,372.116594 C345.157922,372.116594 346.196562,378.166631 346.868437,384.584223 L348.029595,384.584223 L348.029595,370.649535 L326.334356,370.649535 L326.334356,371.749829 L328.289907,372.116594 C329.695312,372.483359 330.062077,373.339407 330.062077,374.744811 L330.062077,408.662642 C330.062077,410.374737 329.51193,410.985749 328.289907,411.291649 L326.945367,411.658414 L326.945367,412.757918 L348.640606,412.757918 L348.640606,398.824021 L347.480238,398.824021 C346.746709,405.179958 345.951525,411.291649 340.451635,411.291649 L336.234632,411.291649 L336.234632,391.612035 L336.234632,391.612004 Z M311.115992,372.116562 L312.949816,372.116562 C315.39386,372.116562 317.655312,373.705349 317.655312,381.650864 C317.655312,389.656452 315.944797,390.573364 312.522187,390.573364 L311.115992,390.573364 L311.115992,372.116562 Z M301.887591,412.757886 L314.233492,412.757886 L314.233492,411.658382 L312.888161,411.352482 C311.666139,411.046581 311.115992,410.374706 311.115992,408.66261 L311.115992,392.040423 L313.377444,392.040423 C315.149613,392.040423 316.066525,392.773952 316.189043,396.196562 L316.494154,404.018768 C316.739191,411.046581 318.755606,413.002923 322.178216,413.002923 C325.661691,413.002923 326.577812,410.618952 326.577812,407.257996 L326.577812,405.851801 L325.294926,405.851801 L325.294926,406.890441 C325.294926,409.152684 324.989816,410.741471 324.133768,410.741471 C323.339374,410.741471 323.27772,410.13046 323.095128,407.31886 L322.727573,401.941489 C322.23908,394.546121 321.261305,392.223805 316.005661,391.245239 C321.077922,389.901489 324.194632,386.172978 324.194632,380.85568 C324.194632,373.949596 318.755606,370.649504 313.560827,370.649504 L301.887591,370.649504 L301.887591,371.749798 L303.232132,372.116562 C304.454944,372.483327 305.004301,372.97261 305.004301,374.683125 L305.004301,408.66261 C305.004301,410.374706 304.454944,410.985717 303.232132,411.291618 L301.887591,411.658382 L301.887591,412.757886 L301.887591,412.757886 Z M292.537463,372.116562 L293.882003,372.116562 C297.670588,372.116562 298.954264,378.166599 299.382683,384.584191 L300.543051,384.584191 L300.543051,370.649504 L278.358529,370.649504 L278.358529,384.584191 L279.519687,384.584191 C279.947316,378.166599 281.230992,372.116562 285.020367,372.116562 L286.364907,372.116562 L286.364907,408.66261 C286.364907,410.374706 285.81397,410.985717 284.592738,411.291618 L283.003161,411.658382 L283.003161,412.757886 L295.898418,412.757886 L295.898418,411.658382 L294.309632,411.291618 C292.720845,410.924853 292.537463,409.702831 292.537463,408.66261 L292.537463,372.116562 L292.537463,372.116562 Z M278.419393,401.81818 C278.419393,389.289687 264.668878,385.989596 264.668878,376.883713 C264.668878,374.928162 265.402407,371.994044 268.457463,371.994044 C272.857849,371.994044 274.50829,377.678107 275.241819,384.584191 L276.402977,384.584191 L276.402977,370.649504 L275.669448,370.649504 C275.363547,371.994044 274.8134,372.605846 274.019797,372.605846 C272.613602,372.605846 271.880073,370.405257 268.519117,370.405257 C263.324338,370.405257 259.779209,374.744779 259.779209,380.428051 C259.779209,390.756746 273.530514,395.095478 273.530514,404.629779 C273.530514,408.968511 271.513308,411.413346 268.763363,411.413346 C264.668878,411.413346 261.979797,406.586121 261.246268,398.823989 L260.08511,398.823989 L260.08511,412.757886 L260.818639,412.757886 C261.42965,410.741471 262.224043,410.558088 262.895918,410.558088 C264.057867,410.558088 265.279889,413.002923 268.824227,413.002923 C274.264043,413.002923 278.419393,408.297426 278.419393,401.81818 M238.38908,374.683125 C238.38908,372.97261 238.939227,372.422463 240.161249,372.177426 L241.811691,371.810662 L241.811691,370.649504 L229.099816,370.649504 L229.099816,371.749798 L230.444356,372.116562 C231.666378,372.483327 232.216525,372.97261 232.216525,374.683125 L232.216525,408.66261 C232.216525,410.374706 231.666378,410.985717 230.444356,411.291618 L229.099816,411.658382 L229.099816,412.757886 L249.08454,412.757886 L249.08454,398.823989 L247.922591,398.823989 C247.312371,405.24079 246.028694,411.291618 240.833915,411.291618 L238.38908,411.291618 L238.38908,374.683125 L238.38908,374.683125 Z M197.930349,401.390551 L197.930349,399.740901 L189.680514,399.740901 L189.435477,401.390551 L197.930349,401.390551 Z M162.606323,412.880404 L165.112021,412.880404 L170.795293,382.812022 L169.940036,382.812022 L176.173455,412.880404 L178.374043,412.880404 L185.830275,377.43386 C186.624668,373.705349 187.052297,372.422463 188.519356,372.054908 L189.680514,371.749798 L189.680514,370.649504 L181.063124,370.649504 L181.063124,371.749798 L182.346801,371.994044 C184.179834,372.360809 184.607463,373.461103 183.752205,377.983217 L178.924191,401.757316 L179.65772,401.757316 L174.768051,376.700331 C174.278768,374.31636 173.973657,372.360809 175.990863,371.994044 L177.334613,371.749798 L177.334613,370.649504 L165.53965,370.649504 L165.53965,371.749798 L166.334043,371.93318 C167.556856,372.23829 167.740238,372.97261 168.228731,375.294926 L170.123418,384.400809 L169.756654,378.900129 L165.53965,401.146305 L166.089797,401.146305 L161.139264,376.700331 C160.589117,374.194632 160.405735,372.299945 162.361286,371.93318 L163.278988,371.749798 L163.278988,370.649504 L151.238988,370.649504 L151.238988,371.749798 L152.400146,372.054908 C153.49965,372.360809 154.111452,372.910956 154.844981,376.271912 L162.606323,412.880404 Z M129.970588,391.612004 L131.865275,391.673658 C134.61522,391.734554 135.409613,392.773952 135.95976,399.43579 L137.120918,399.43579 L137.120918,382.445257 L135.95976,382.445257 C135.287885,387.762555 134.554356,390.023217 131.926139,390.084871 L129.970588,390.145767 L129.970588,372.116594 L134.187591,372.116594 C138.893088,372.116594 139.932518,378.166631 140.604393,384.584223 L141.765551,384.584223 L141.765551,370.649535 L120.681323,370.649535 L120.681323,371.749829 L122.025863,372.116594 C123.431268,372.483359 123.798032,373.339407 123.798032,374.744811 L123.798032,408.662642 C123.798032,410.374737 123.247885,410.985749 122.025863,411.291649 L120.681323,411.658414 L120.681323,412.757918 L142.377352,412.757918 L142.377352,398.824021 L141.215404,398.824021 C140.482665,405.179958 139.688271,411.291649 134.187591,411.291649 L129.970588,411.291649 L129.970588,391.612035 L129.970588,391.612004 Z M91.5290619,412.757886 L104.057555,412.757886 L104.057555,411.658382 L102.65215,411.352482 C101.551856,411.108235 100.818327,410.374706 100.818327,408.66261 L100.818327,391.979559 L110.046727,391.979559 L110.046727,408.66261 C110.046727,410.374706 109.313988,411.108235 108.213694,411.352482 L106.80829,411.658382 L106.80829,412.757886 L119.336782,412.757886 L119.336782,411.658382 L117.992242,411.291618 C116.77022,410.985717 116.219282,410.313051 116.219282,408.602537 L116.219282,374.683125 C116.219282,372.97261 116.77022,372.422463 117.992242,372.116562 L119.336782,371.749798 L119.336782,370.649504 L106.80829,370.649504 L106.80829,371.749798 L108.213694,372.116562 C109.252334,372.422463 110.046727,372.850092 110.046727,374.622261 L110.046727,390.329118 L100.818327,390.329118 L100.818327,374.622261 C100.818327,372.910956 101.490992,372.422463 102.65215,372.116562 L104.057555,371.749798 L104.057555,370.649504 L91.5290619,370.649504 L91.5290619,371.749798 L92.8736023,372.116562 C94.0964148,372.483327 94.6457714,372.97261 94.6457714,374.683125 L94.6457714,408.66261 C94.6457714,410.374706 94.0964148,410.985717 92.8736023,411.291618 L91.5290619,411.658382 L91.5290619,412.757886 Z M82.1781434,372.116562 L83.5234743,372.116562 C87.3120588,372.116562 88.5957353,378.166599 89.0233633,384.584191 L90.1845214,384.584191 L90.1845214,370.649504 L68,370.649504 L68,384.584191 L69.1611581,384.584191 C69.5887868,378.166599 70.8724632,372.116562 74.6610478,372.116562 L76.0055882,372.116562 L76.0055882,408.66261 C76.0055882,410.374706 75.4562316,410.985717 74.2334191,411.291618 L72.6446324,411.658382 L72.6446324,412.757886 L85.8457904,412.757886 L85.8457904,411.658382 L83.9511029,411.230754 C82.7899449,410.924853 82.1781434,410.558088 82.1781434,408.66261 L82.1781434,372.116562 L82.1781434,372.116562 Z" id="path13406"></path>
        </g>
    </g>
</svg>