<?xml version="1.0" encoding="UTF-8"?>
<svg width="353px" height="56px" viewBox="0 0 353 56" version="1.1" xmlns="http://www.w3.org/2000/svg" xmlns:xlink="http://www.w3.org/1999/xlink">
    <title>Combined Shape</title>
    <g id="round3-mobile" stroke="none" stroke-width="1" fill="none" fill-rule="evenodd">
        <g id="文章推薦" transform="translate(-68.000000, -553.000000)" fill="#FFFFFF" fill-rule="nonzero">
            <g id="mk-logo-en-0f3879b0055f102496bba11f23dc7ee2" transform="translate(68.000000, 553.000000)">
                <path d="M151.9408,12.8906667 L160.073067,32.5349333 L169.045867,12.8906667 L177.096533,12.8906667 L157.489067,55.6522667 L149.376,55.6522667 L155.813867,41.8634667 L143.912533,12.8906667 L151.9408,12.8906667 Z M68.6976,12.0858667 C70.5754667,12.0858667 72.3381333,12.44 73.9861333,13.1509333 C75.6341333,13.8592 77.1578667,14.9242667 78.5568,16.344 L78.5568,12.8906667 L86.4112,12.8906667 L86.4112,44.1984 L78.5562667,44.1984 L78.5562667,40.8896 C77.0234667,42.3482667 75.4848,43.3973333 73.9429333,44.0410667 C72.4,44.6826667 70.7285333,45.0048 68.9274667,45.0048 C64.8848,45.0048 61.3872,43.4373333 58.4368,40.2986667 C55.4853333,37.1637333 54.0106667,33.2645333 54.0106667,28.6026667 C54.0106667,23.7690667 55.4384,19.808 58.2933333,16.7189333 C61.1482667,13.6298667 64.616,12.0858667 68.6976,12.0858667 Z M121.730667,12.0858667 C123.608533,12.0858667 125.3712,12.44 127.018133,13.1509333 C128.666133,13.8592 130.189867,14.9242667 131.589867,16.344 L131.589867,12.8906667 L139.4448,12.8906667 L139.4448,44.1984 L131.589867,44.1984 L131.589867,40.8896 C130.055467,42.3482667 128.517333,43.3973333 126.976533,44.0410667 C125.4336,44.6826667 123.762133,45.0048 121.96,45.0048 C117.917867,45.0048 114.421333,43.4373333 111.4704,40.2986667 C108.519467,37.1637333 107.043733,33.2645333 107.043733,28.6026667 C107.043733,23.7690667 108.472,19.808 111.3264,16.7189333 C114.181867,13.6298667 117.649067,12.0858667 121.730667,12.0858667 Z M190.4336,12.0864 C192.466667,12.0864 194.379733,12.5322667 196.174933,13.424 C197.968533,14.3162667 199.488533,15.5962667 200.735467,17.2650667 L195.872533,22.1274667 C193.896533,20.1717333 192.1024,19.1930667 190.4912,19.1930667 C189.6096,19.1930667 188.9184,19.3802667 188.420267,19.7546667 C187.92,20.1274667 187.671467,20.5941333 187.671467,21.1504 C187.671467,21.5722667 187.829333,21.9610667 188.1472,22.3152 C188.4624,22.6693333 189.244267,23.1546667 190.491733,23.7690667 L193.3696,25.2074667 C196.401067,26.704 198.482133,28.2282667 199.613867,29.7818667 C200.746133,31.336 201.312533,33.1589333 201.312533,35.2501333 C201.312533,38.032 200.290133,40.352 198.246933,42.2138667 C196.204267,44.0741333 193.465067,45.0048 190.032533,45.0048 C185.466133,45.0048 181.821333,43.2213333 179.097067,39.6528 L183.9312,34.3866667 C184.852267,35.4608 185.9312,36.3296 187.169067,36.9904 C188.405867,37.6528 189.504,37.984 190.463467,37.984 C191.498667,37.984 192.3344,37.7338667 192.966933,37.2352 C193.599467,36.7365333 193.916267,36.1610667 193.916267,35.5093333 C193.916267,34.3013333 192.7744,33.1205333 190.491733,31.9696 L187.844267,30.6458667 C182.7808,28.0944 180.247467,24.9013333 180.247467,21.064 C180.247467,18.5893333 181.2016,16.4741333 183.110933,14.7194667 C185.020267,12.9626667 187.459733,12.0864 190.4336,12.0864 Z M234.875733,12.0858667 C236.753067,12.0858667 238.5152,12.44 240.1632,13.1509333 C241.8112,13.8592 243.333867,14.9242667 244.733333,16.344 L244.733333,12.8906667 L252.5888,12.8906667 L252.5888,44.1984 L244.733333,44.1984 L244.733333,40.8896 C243.199467,42.3482667 241.6624,43.3973333 240.120533,44.0410667 C238.5776,44.6826667 236.906133,45.0048 235.1056,45.0048 C231.0624,45.0048 227.5648,43.4373333 224.6144,40.2986667 C221.6624,37.1637333 220.187733,33.2645333 220.187733,28.6026667 C220.187733,23.7690667 221.616,19.808 224.470933,16.7189333 C227.325867,13.6298667 230.793067,12.0858667 234.875733,12.0858667 Z M37.3429333,12.0858667 C39.5690667,12.0858667 41.5274667,12.6032 43.2170667,13.64 C44.9066667,14.6746667 46.1205333,16.0277333 46.8602667,17.696 C47.5994667,19.3658667 47.9690667,22.0805333 47.9690667,25.8394667 L47.9690667,44.1984 L40.0549333,44.1984 L40.0549333,28.3146667 C40.0549333,24.7664 39.6138667,22.3632 38.7322667,21.1072 C37.8496,19.8496 36.5258667,19.2224 34.7610667,19.2224 C33.4181333,19.2224 32.2144,19.6058667 31.1493333,20.3728 C30.0842667,21.1402667 29.2933333,22.2010667 28.7749333,23.5536 C28.2576,24.9056 27.9978667,27.0773333 27.9978667,30.0693333 L27.9978667,44.1984 L20.0848,44.1984 L20.0848,29.0346667 C20.0848,26.2336 19.8778667,24.2053333 19.4650667,22.9482667 C19.0512,21.6922667 18.4309333,20.7568 17.6042667,20.1429333 C16.7781333,19.5285333 15.7776,19.2218667 14.6042667,19.2218667 C13.2970667,19.2218667 12.1098667,19.6096 11.0421333,20.3866667 C9.97493333,21.1642667 9.17706667,22.2522667 8.64853333,23.6533333 C8.12053333,25.0538667 7.85546667,27.2597333 7.85546667,30.2709333 L7.85546667,44.1978667 L1.27897692e-11,44.1978667 L1.27897692e-11,12.8906667 L7.85546667,12.8906667 L7.85546667,16.488 C9.19893333,15.0101333 10.6917333,13.9072 12.3333333,13.1797333 C13.9749333,12.4501333 15.7653333,12.0858667 17.704,12.0858667 C19.6608,12.0858667 21.4277333,12.5658667 23.0026667,13.5242667 C24.5765333,14.4837333 25.8437333,15.8837333 26.8037333,17.7253333 C28.0512,15.8837333 29.5818667,14.4837333 31.3968,13.5242667 C33.2101333,12.5658667 35.1925333,12.0858667 37.3429333,12.0858667 Z M351.2,12.8906667 L351.2,44.1984 L343.344533,44.1984 L343.344533,12.8906667 L351.2,12.8906667 Z M325.980267,12.0864 C329.082667,12.0864 331.717333,13.1701333 333.8816,15.3376 C335.701867,17.1792 336.610133,19.904 336.610133,23.5104 L336.610133,44.1989333 L328.840533,44.1989333 L328.840533,30.4885333 C328.840533,26.7525333 328.674133,24.2714667 328.338667,23.0448 C328.0048,21.8170667 327.420267,20.8842667 326.587733,20.2432 C325.7552,19.6016 324.728533,19.2784 323.5024,19.2784 C321.9136,19.2784 320.550933,19.8112 319.4112,20.8741333 C318.273067,21.9386667 317.484267,23.4085333 317.044267,25.2869333 C316.8128,26.264 316.699733,28.3813333 316.699733,31.6368 L316.699733,44.1978667 L308.844267,44.1978667 L308.844267,12.8906667 L316.699733,12.8906667 L316.699733,16.1008 C318.480533,14.5978667 320.0944,13.5541333 321.540267,12.9674667 C322.986667,12.3797333 324.4656,12.0864 325.980267,12.0864 Z M214.490133,12.8906667 L214.490133,44.1984 L206.634667,44.1984 L206.634667,12.8906667 L214.490133,12.8906667 Z M101.346133,0.805866667 L101.346133,44.1984 L93.4906667,44.1984 L93.4906667,0.805866667 L101.346133,0.805866667 Z M268.443733,0.805866667 L268.443733,25.7978667 L280.010667,12.8906667 L289.875733,12.8906667 L276.3904,27.8965333 L291.4896,44.1984 L281.738667,44.1984 L268.444267,29.7701333 L268.444267,44.1984 L260.587733,44.1984 L260.587733,0.805866667 L268.443733,0.805866667 Z M301.7072,12.8906667 L301.7072,44.1984 L293.851733,44.1984 L293.851733,12.8906667 L301.7072,12.8906667 Z M70.2981333,19.3370667 C67.8698667,19.3370667 65.8533333,20.1957333 64.2469333,21.912 C62.6410667,23.6298667 61.8378667,25.8304 61.8378667,28.5168 C61.8378667,31.2213333 62.6549333,33.4464 64.2896,35.1930667 C65.9242667,36.9381333 67.9365333,37.8112 70.3269333,37.8112 C72.7941333,37.8112 74.8389333,36.952 76.464,35.2368 C78.0890667,33.5184 78.9024,31.2704 78.9024,28.4885333 C78.9024,25.7648 78.0890667,23.5578667 76.464,21.8698667 C74.8389333,20.1813333 72.7834667,19.3370667 70.2981333,19.3370667 Z M123.330667,19.3370667 C120.9024,19.3370667 118.885867,20.1957333 117.279467,21.912 C115.672533,23.6298667 114.8704,25.8304 114.8704,28.5168 C114.8704,31.2213333 115.6864,33.4464 117.322133,35.1930667 C118.9568,36.9381333 120.969067,37.8112 123.359467,37.8112 C125.825067,37.8112 127.870933,36.952 129.496533,35.2368 C131.121067,33.5184 131.933867,31.2704 131.933867,28.4885333 C131.933867,25.7648 131.121067,23.5578667 129.496533,21.8698667 C127.870933,20.1813333 125.817067,19.3370667 123.330667,19.3370667 Z M236.475733,19.3370667 C234.0464,19.3370667 232.029867,20.1957333 230.423467,21.912 C228.8176,23.6298667 228.013867,25.8304 228.013867,28.5168 C228.013867,31.2213333 228.829867,33.4464 230.4656,35.1930667 C232.101333,36.9381333 234.112533,37.8112 236.5024,37.8112 C238.969067,37.8112 241.014933,36.952 242.639467,35.2368 C244.265067,33.5184 245.077867,31.2704 245.077867,28.4885333 C245.077867,25.7648 244.265067,23.5578667 242.639467,21.8698667 C241.015467,20.1813333 238.96,19.3370667 236.475733,19.3370667 Z M210.5616,1.70530257e-12 C211.938667,1.70530257e-12 213.121067,0.498666667 214.106133,1.49653333 C215.090667,2.49386667 215.584,3.7024 215.584,5.12213333 C215.584,6.52213333 215.095467,7.71573333 214.120533,8.704 C213.145067,9.6928 211.978133,10.1856 210.6208,10.1856 C209.2256,10.1856 208.032533,9.68373333 207.048533,8.6752 C206.063467,7.66773333 205.5712,6.44586667 205.5712,5.00533333 C205.5712,3.62613333 206.058133,2.4448 207.034667,1.46773333 C208.009067,0.489066667 209.185067,1.70530257e-12 210.5616,1.70530257e-12 Z M297.780267,1.70530257e-12 C299.157333,1.70530257e-12 300.338133,0.498666667 301.322133,1.49653333 C302.309333,2.49386667 302.8,3.7024 302.8,5.12213333 C302.8,6.52213333 302.313067,7.71573333 301.3376,8.704 C300.362133,9.6928 299.194667,10.1856 297.837867,10.1856 C296.440533,10.1856 295.249067,9.68373333 294.264533,8.6752 C293.278933,7.66773333 292.7872,6.44586667 292.7872,5.00533333 C292.7872,3.62613333 293.2752,2.4448 294.250133,1.46773333 C295.226667,0.489066667 296.402667,1.70530257e-12 297.780267,1.70530257e-12 Z M347.2736,1.70530257e-12 C348.6496,1.70530257e-12 349.831467,0.498666667 350.8176,1.49653333 C351.802133,2.49386667 352.2944,3.7024 352.2944,5.12213333 C352.2944,6.52213333 351.807467,7.71573333 350.830933,8.704 C349.854933,9.6928 348.689067,10.1856 347.3312,10.1856 C345.935467,10.1856 344.742933,9.68373333 343.7584,8.6752 C342.774933,7.66773333 342.280533,6.44586667 342.280533,5.00533333 C342.280533,3.62613333 342.7696,2.4448 343.743467,1.46773333 C344.718933,0.489066667 345.894933,1.70530257e-12 347.2736,1.70530257e-12 Z" id="Combined-Shape"></path>
            </g>
        </g>
    </g>
</svg>