<?xml version="1.0" encoding="UTF-8"?>
<svg width="207px" height="44px" viewBox="0 0 207 44" version="1.1" xmlns="http://www.w3.org/2000/svg" xmlns:xlink="http://www.w3.org/1999/xlink">
    <title>Combined Shape</title>
    <g id="round3-mobile" stroke="none" stroke-width="1" fill="none" fill-rule="evenodd">
        <g id="文章推薦" transform="translate(-68.000000, -736.000000)" fill="#FFFFFF">
            <g id="Group-2" transform="translate(68.000000, 736.377574)">
                <path d="M32.5,0.5 C33.6045695,0.5 34.5,1.3954305 34.5,2.5 L34.5,41.5 C34.5,42.6045695 33.6045695,43.5 32.5,43.5 L28.5,43.5 C27.3954305,43.5 26.5,42.6045695 26.5,41.5 L26.5,2.5 C26.5,1.3954305 27.3954305,0.5 28.5,0.5 L32.5,0.5 Z M51.25,0.5 C52.3545695,0.5 53.25,1.3954305 53.25,2.5 L53.25,41.5 C53.25,42.6045695 52.3545695,43.5 51.25,43.5 L46.75,43.5 C45.6454305,43.5 44.75,42.6045695 44.75,41.5 L44.75,2.5 C44.75,1.3954305 45.6454305,0.5 46.75,0.5 L51.25,0.5 Z M70,0.5 C71.1045695,0.5 72,1.3954305 72,2.5 L72,41.5 C72,42.6045695 71.1045695,43.5 70,43.5 L65.5,43.5 C64.3954305,43.5 63.5,42.6045695 63.5,41.5 L63.5,2.5 C63.5,1.3954305 64.3954305,0.5 65.5,0.5 L70,0.5 Z M88.25,0.5 C89.3545695,0.5 90.25,1.3954305 90.25,2.5 L90.25,41.5 C90.25,42.6045695 89.3545695,43.5 88.25,43.5 L84.25,43.5 C83.1454305,43.5 82.25,42.6045695 82.25,41.5 L82.25,2.5 C82.25,1.3954305 83.1454305,0.5 84.25,0.5 L88.25,0.5 Z M160.866624,0.5 C161.971193,0.5 162.866624,1.3954305 162.866624,2.5 L162.866624,41.5 C162.866624,42.6045695 161.971193,43.5 160.866624,43.5 L156.866624,43.5 C155.762054,43.5 154.866624,42.6045695 154.866624,41.5 L154.866624,2.5 C154.866624,1.3954305 155.762054,0.5 156.866624,0.5 L160.866624,0.5 Z M179.116624,0.5 C180.221193,0.5 181.116624,1.3954305 181.116624,2.5 L181.116624,41.5 C181.116624,42.6045695 180.221193,43.5 179.116624,43.5 L175.116624,43.5 C174.012054,43.5 173.116624,42.6045695 173.116624,41.5 L173.116624,2.5 C173.116624,1.3954305 174.012054,0.5 175.116624,0.5 L179.116624,0.5 Z M142.616624,35.5 C143.721193,35.5 144.616624,36.3954305 144.616624,37.5 L144.616624,41.5 C144.616624,42.6045695 143.721193,43.5 142.616624,43.5 L103.616624,43.5 C102.512054,43.5 101.616624,42.6045695 101.616624,41.5 L101.616624,37.5 C101.616624,36.3954305 102.512054,35.5 103.616624,35.5 L142.616624,35.5 Z M191.759741,2.48860922 L206.369398,38.6487795 C206.783177,39.6729185 206.288383,40.8385814 205.264244,41.2523604 L201.555508,42.7507868 C200.531369,43.1645658 199.365706,42.6697713 198.951927,41.6456323 L184.34227,5.48546196 C183.928491,4.46132296 184.423286,3.29566008 185.447425,2.88188107 L189.15616,1.38345469 C190.180299,0.969675676 191.345962,1.46447021 191.759741,2.48860922 Z M18.199674,1.38345469 L21.9084095,2.88188107 C22.9325485,3.29566008 23.427343,4.46132296 23.013564,5.48546196 L8.40390685,41.6456323 C7.99012783,42.6697713 6.82446496,43.1645658 5.80032595,42.7507868 L2.09159053,41.2523604 C1.06745153,40.8385814 0.572656993,39.6729185 0.98643601,38.6487795 L15.5960932,2.48860922 C16.0098722,1.46447021 17.175535,0.969675676 18.199674,1.38345469 Z M142.616624,18.625 C143.721193,18.625 144.616624,19.5204305 144.616624,20.625 L144.616624,24.625 C144.616624,25.7295695 143.721193,26.625 142.616624,26.625 L103.616624,26.625 C102.512054,26.625 101.616624,25.7295695 101.616624,24.625 L101.616624,20.625 C101.616624,19.5204305 102.512054,18.625 103.616624,18.625 L142.616624,18.625 Z M142.616624,0.5 C143.721193,0.5 144.616624,1.3954305 144.616624,2.5 L144.616624,6.5 C144.616624,7.6045695 143.721193,8.5 142.616624,8.5 L103.616624,8.5 C102.512054,8.5 101.616624,7.6045695 101.616624,6.5 L101.616624,2.5 C101.616624,1.3954305 102.512054,0.5 103.616624,0.5 L142.616624,0.5 Z" id="Combined-Shape"></path>
            </g>
        </g>
    </g>
</svg>