<?xml version="1.0" encoding="UTF-8"?>
<svg width="64px" height="64px" viewBox="0 0 64 64" version="1.1" xmlns="http://www.w3.org/2000/svg" xmlns:xlink="http://www.w3.org/1999/xlink">
    <title>Combined Shape</title>
    <g id="round3-mobile" stroke="none" stroke-width="1" fill="none" fill-rule="evenodd">
        <g id="文章推薦" transform="translate(-1317.000000, -40.000000)" fill="#FFFFFF" fill-rule="nonzero">
            <g id="index" transform="translate(1317.000000, 40.000000)">
                <path d="M32.0048546,0.0614917826 C49.6538862,0.0606826802 63.9643995,14.3699014 63.9643995,32.0194185 C63.9643995,49.6713628 49.6538862,63.9805815 32.0048546,63.9805815 C14.3533957,63.9805815 0.0453097345,49.6713628 0.0453097345,32.0194185 C0.0453097345,24.0655751 2.95156887,16.7900106 7.76019801,11.196851 C7.32978418,10.5772239 7.07721871,9.82390173 7.07721871,9.01178255 C7.07721871,6.89193426 8.79413401,5.17501896 10.9123641,5.17501896 C11.8445636,5.17501896 12.6985315,5.5071899 13.362805,6.05944953 C18.6096633,2.28460665 25.0476674,0.0614917826 32.0048546,0.0614917826 Z M32.0048546,1.97874083 C25.4663669,1.97874083 19.4158395,4.06753068 14.4841024,7.61420591 C14.6547239,8.04684973 14.7475095,8.51769664 14.7475095,9.01016435 C14.7475095,11.0637674 13.1377434,12.7392272 11.1098747,12.841938 L10.9139823,12.8469279 C10.30292,12.8469279 9.72533832,12.704198 9.21270989,12.4503077 C4.6938952,17.7066522 1.96336789,24.5445745 1.96336789,32.0202276 C1.96336789,48.6124096 15.4130771,62.0633325 32.0048546,62.0633325 C48.5966321,62.0633325 62.0455322,48.6116005 62.0455322,32.0194185 C62.0455322,15.4288546 48.595823,1.97874083 32.0048546,1.97874083 Z M32.3883692,18.0114286 C32.687737,18.2031858 32.7654109,19.3885209 32.4288243,19.6215424 C32.1860936,19.7914539 31.6480405,19.7008344 31.328445,19.7008344 C30.2749937,19.7008344 29.5670291,19.6684703 28.4383312,19.7008344 C27.9528698,19.7145891 27.8104678,19.7073072 27.7465487,20.132086 C27.6915297,20.488091 27.6980025,21.4209861 27.867914,21.5868521 C28.1106448,21.8214918 29.6414665,21.7041719 30.1495828,21.7041719 C30.5096334,21.7041719 30.9149937,21.712263 31.3292541,21.7041719 C31.5072566,21.7017446 31.7661694,21.6960809 31.9004804,21.6960809 C32.6335272,21.6976991 32.5963085,22.0237674 32.5963085,22.9145891 C32.5963085,25.4753982 32.631909,28.0718078 32.631909,30.6212895 L32.6314166,31.0493855 C32.6284987,31.4279312 32.6135203,31.7728629 32.5429077,31.857598 C32.4619975,31.9571176 32.2597219,31.9951454 32.0275095,32.0072819 L32.0194185,32.0072819 C31.9247535,32.0113274 31.8300885,32.0129456 31.7362326,32.0121365 L31.6569406,32.0137547 C31.2847535,32.0137547 31.2038432,31.9991909 31.0768142,31.944981 C31.0039949,31.9126169 30.9473578,31.87378 30.9198483,31.7855879 C30.8891024,31.691732 30.8713021,31.5930215 30.8664475,31.494311 C30.8526928,31.3065992 30.8470291,30.4101138 30.8421745,29.9246523 C30.8259924,27.9884703 30.854311,26.5102402 30.8357016,24.4470291 C30.8332743,24.1670796 30.8486473,23.9049305 30.7871555,23.6783818 C30.7143363,23.4162326 30.4254867,23.3871049 30.1722377,23.3838685 L30.0694817,23.3838685 C29.7943869,23.3838685 29.5629836,23.4000506 29.4545638,23.5076612 C29.282225,23.6816182 29.3356258,25.1954488 29.3356258,25.5935272 C29.3356258,26.7926169 29.3679899,29.1034134 29.3679899,30.3510493 C29.3679899,31.028268 29.3963085,31.6812137 29.2967889,31.8446523 C29.2288243,31.9554994 29.0492035,31.9619722 28.4391403,31.9595449 L28.4391403,31.9571176 L28.1871867,31.9570349 C27.8692113,31.9554592 27.8015676,31.9413769 27.7214665,31.834134 C27.6098104,31.6828319 27.5976738,31.2823262 27.5976738,30.8615929 C27.6025284,28.7231353 27.6057649,26.7820986 27.5895828,24.5392668 C27.5879646,24.1525158 27.6324652,23.6897092 27.5450822,23.5562073 C27.4366625,23.3960051 26.3840202,23.3498862 26.2586094,23.545689 C26.1615171,23.7091277 26.1631353,23.9178761 26.1598989,25.4794437 C26.1550442,27.3808344 26.137244,28.9286473 26.1598989,30.9004298 C26.1647535,31.2677623 26.1979267,31.6140582 26.042579,31.8122882 C25.9026043,31.9902908 25.5757269,31.9619722 25.2237674,31.960354 C24.8086979,31.9579267 24.6217952,31.9482174 24.5004298,31.7702149 C24.3790645,31.5954488 24.422756,31.249153 24.422756,30.775019 C24.422756,29.7207585 24.4106195,28.6875348 24.4130468,27.6316561 C24.4154741,26.8581542 24.4090013,26.2092541 24.4090013,25.4794437 C24.4090013,24.1484703 24.4292288,23.7536283 24.2941087,23.5335525 C24.2075348,23.3927686 24.043287,23.379823 23.3498862,23.3976233 C23.0828824,23.4040961 23.0327181,23.4752971 23.0327181,23.6808091 C23.0310999,24.9713274 23.0343363,26.4803034 23.0343363,27.757067 C23.0343363,28.6713527 23.0132996,29.9464981 23.0343363,30.9635398 C23.0375727,31.2014159 23.0424273,31.5040202 22.953426,31.7103413 C22.811024,32.0339823 22.0844501,32.0987105 21.5593426,31.9611631 C21.4662958,31.93689 21.2947661,31.8851075 21.2324652,31.802579 C21.1046271,31.628622 21.151555,31.0792415 21.1531732,30.585689 C21.1556005,28.3404298 21.1936283,26.5021492 21.1936283,24.1824526 L21.1895828,24.1792162 C21.1895828,23.4307965 21.1102908,22.3231353 21.4938053,21.8748925 C21.6960809,21.6402528 22.1192415,21.7114539 23.6735272,21.704981 C24.1444248,21.7025537 24.7787611,21.7082174 25.3160051,21.7114539 C25.5069532,21.7114539 25.7771934,21.7017446 25.8726675,21.625689 C26.05067,21.4849052 26.0967889,20.6248293 26.0361062,20.1733502 C25.9754235,19.7331985 25.8904678,19.7283439 25.3839697,19.7016435 C24.8701896,19.6749431 24.0918331,19.7016435 23.593426,19.7016435 C22.7705689,19.7016435 21.6111252,19.8440455 21.3133755,19.5818963 C21.1653097,19.4540582 21.1774463,19.1902908 21.1920101,18.8375221 C21.2001011,18.6724652 21.159646,18.4839444 21.1920101,18.3658154 C21.1944374,18.3536789 21.348976,18.1182301 21.3942857,18.0907206 C21.5908976,17.9645006 22.1281416,18.0114286 22.6564855,18.0114286 L30.6366625,18.0114286 C31.1083692,18.0114286 31.5331479,17.9523641 31.9813906,17.9709735 C32.0299368,17.975019 32.2532491,17.9248546 32.3883692,18.0114286 Z M8.58053097,17.9758281 L15.0970417,17.9758281 L15.0970417,17.9758281 C15.2475348,17.967737 15.7418963,17.9353729 15.8430341,18.0688748 C15.8931985,18.1352212 15.9101896,18.1578761 15.9296081,18.2128951 C16.0542099,18.5672819 16.0509735,19.4726675 15.7702149,19.6304425 C15.5938306,19.7275348 15.2378255,19.6644248 14.9368394,19.6692794 C14.6633628,19.6725158 14.2992668,19.6288243 14.1423009,19.7469532 C13.8809608,19.9443742 13.9820986,21.1110999 13.9820986,21.9129204 C13.9820986,24.2366625 13.9367889,26.5862958 14.0225537,28.7239444 C14.0387358,29.1244501 13.9448799,29.819469 14.1018458,30.0241719 C14.2426296,30.2086473 14.5654614,30.182756 14.8963843,30.182756 L14.8955752,30.1819469 C15.4562832,30.1819469 15.826043,30.0338812 15.9676359,30.4974968 C16.0695828,30.8243742 16.0485461,31.636713 15.8486979,31.834134 C15.54933,32.1335019 14.2369659,31.9927181 13.5832111,31.9927181 L8.73830594,31.9927181 C8.2188622,31.9927181 6.74144121,32.1003287 6.51489254,31.8349431 C6.39352718,31.6973957 6.45582807,30.9449305 6.45259166,30.5419975 C6.45259166,30.4853603 6.45582807,30.3906953 6.51408344,30.3211125 C6.55453856,30.2612389 6.61926675,30.2199747 6.69208597,30.2078382 C6.84176991,30.1722377 7.19939317,30.1892288 7.46639697,30.1835651 C7.70912769,30.1754741 7.97936789,30.1997472 8.22209861,30.1026549 C8.2528445,30.0913274 8.3871555,30.0176991 8.38230088,30.0241719 C8.47777497,29.8890518 8.45188369,29.1827054 8.46159292,28.8024273 C8.52389381,26.1874083 8.46159292,23.7228824 8.46159292,21.009153 C8.46159292,20.6046018 8.51499368,19.9411378 8.38230088,19.7890265 C8.13552465,19.5058407 6.88707965,19.8375727 6.59418458,19.5503413 C6.4663464,19.428976 6.47120101,19.1781542 6.47443742,18.8439949 C6.47605563,18.6336283 6.43802781,18.4070796 6.51489254,18.251732 C6.52298357,18.2339317 6.54321113,18.1991403 6.55049305,18.1837674 C6.55696587,18.1675853 6.58123894,18.1473578 6.59418458,18.133603 C6.81102402,17.8908723 7.94053097,17.9758281 8.58053097,17.9758281 Z M10.6324147,19.9063464 C10.5337042,19.9063464 10.4252845,19.9209102 10.3864475,19.9589381 C10.3395196,20.0042478 10.3095828,20.0625032 10.2893552,20.1741593 C10.2707459,20.4265992 10.2756005,20.8084956 10.2756005,21.1313274 L10.2756005,25.2739317 C10.2756005,26.9042731 10.2691277,27.8711504 10.3120101,29.3760809 C10.3306195,29.9788622 10.2772187,30.4983059 10.4252845,30.6358534 C10.603287,30.799292 11.8573957,30.7895828 12.0434893,30.5549431 C12.1826549,30.3785588 12.1567636,29.8267509 12.1567636,29.3348167 L12.1567636,22.5933755 C12.1567636,22.0569406 12.2878382,20.2583059 12.0434893,19.9945386 L12.0426802,19.9953477 C11.8743869,19.8092541 10.8290265,19.9006827 10.6324147,19.9063464 Z M27.6583565,5.34978508 C28.0086979,5.6912263 27.7942857,7.16055626 27.7813401,7.7803287 C27.7764855,8.06351454 27.7813401,8.62988622 27.7813401,9.07084703 C27.7813401,9.52394437 27.7109482,10.0927434 27.8622503,10.2861188 C27.9124147,10.350847 28.0434893,10.3775474 28.1454362,10.4050569 C28.5321871,10.5021492 29.4885461,10.4697851 30.0160809,10.4438938 C30.2960303,10.4277118 30.537952,10.4171934 30.6229077,10.3257649 C30.7766372,10.1598989 30.703818,9.6687737 30.703818,9.11211125 C30.703818,8.12662453 30.6471808,7.01815424 30.703818,5.93881163 C30.7151454,5.74462705 30.7224273,5.51484197 30.728091,5.39266751 C30.7329456,5.27615676 30.8348925,5.24702908 30.9425032,5.23246523 C31.2014159,5.20010114 31.4603287,5.1871555 31.7192415,5.19443742 C31.9239444,5.19686473 32.0954741,5.1863464 32.2475853,5.23489254 C32.3770417,5.27292035 32.5348167,5.35868521 32.5744627,5.42907712 C32.7120101,5.68475348 32.6132996,6.59661188 32.6132996,7.11201011 L32.6149178,7.11201011 C32.6149178,8.61694058 32.679646,9.77395702 32.6149178,11.3840708 C32.6019722,11.7141846 32.5857901,11.9205057 32.4530973,12.0475348 C32.2589128,12.2360556 31.739469,12.2061188 31.154488,12.2061188 C29.5039191,12.2061188 28.6486979,12.1656637 26.8071808,12.1656637 C25.4584071,12.1656637 23.9381037,12.2061188 22.4623009,12.2061188 C21.839292,12.2061188 21.3926675,12.1980278 21.2421745,11.9714791 C21.0819722,11.7271302 21.1612642,10.7481163 21.1612642,10.3646018 L21.1612642,6.21390645 C21.1612642,5.8935019 21.1289001,5.55610619 21.2017193,5.42907712 C21.2502655,5.34573957 21.4711504,5.254311 21.6086979,5.23327434 L21.6896081,5.23327434 L21.6896081,5.23327434 C22.1119595,5.1523641 22.8037421,5.15560051 22.9898357,5.42745891 C23.1298104,5.63620733 23.0707459,6.16859671 23.0707459,6.60470291 L23.0707459,9.11130215 C23.0707459,9.50452592 22.9995449,10.1194437 23.111201,10.2869279 C23.2762579,10.5353224 24.6727686,10.4754488 25.2634134,10.4438938 C25.3977244,10.4358028 25.4794437,10.4277118 25.5894817,10.4050569 C25.7068015,10.3783565 25.8241214,10.374311 25.8726675,10.3257649 C26.0603793,10.1380531 25.9754235,9.64045512 25.9535777,9.15094817 C25.9066498,8.05623262 25.9535777,7.63226296 25.9535777,6.56505689 L25.9493336,6.2494004 C25.9428696,5.88508124 25.9431493,5.54882427 26.0765613,5.3902402 C26.2812642,5.14589128 27.3792162,5.08035398 27.6583565,5.34978508 Z" id="Combined-Shape"></path>
            </g>
        </g>
    </g>
</svg>