<?xml version="1.0" encoding="UTF-8"?>
<svg width="284px" height="228px" viewBox="0 0 284 228" version="1.1" xmlns="http://www.w3.org/2000/svg" xmlns:xlink="http://www.w3.org/1999/xlink">
    <title>Combined Shape</title>
    <g id="round3-mobile" stroke="none" stroke-width="1" fill="none" fill-rule="evenodd">
        <g id="文章推薦" transform="translate(-1021.000000, -412.000000)" fill="#333333" fill-rule="nonzero">
            <path d="M1045.06815,608 C1053.74321,608 1060.77573,615.032524 1060.77573,623.707581 C1060.77573,632.382638 1053.74321,639.415162 1045.06815,639.415162 C1036.39309,639.415162 1029.36057,632.382638 1029.36057,623.707581 C1029.36057,615.032524 1036.39309,608 1045.06815,608 Z M1105.97143,608 C1114.64649,608 1121.67902,615.032524 1121.67902,623.707581 C1121.67902,632.382638 1114.64649,639.415162 1105.97143,639.415162 C1097.29638,639.415162 1090.26385,632.382638 1090.26385,623.707581 C1090.26385,615.032524 1097.29638,608 1105.97143,608 Z M1227.778,608 C1236.45306,608 1243.48558,615.032524 1243.48558,623.707581 C1243.48558,632.382638 1236.45306,639.415162 1227.778,639.415162 C1219.10294,639.415162 1212.07042,632.382638 1212.07042,623.707581 C1212.07042,615.032524 1219.10294,608 1227.778,608 Z M1288.68128,608 C1297.35634,608 1304.38886,615.032524 1304.38886,623.707581 C1304.38886,632.382638 1297.35634,639.415162 1288.68128,639.415162 C1280.00623,639.415162 1272.9737,632.382638 1272.9737,623.707581 C1272.9737,615.032524 1280.00623,608 1288.68128,608 Z M1166.87472,608 C1175.54977,608 1182.5823,615.032524 1182.5823,623.707581 C1182.5823,632.382638 1175.54977,639.415162 1166.87472,639.415162 C1158.19966,639.415162 1151.16714,632.382638 1151.16714,623.707581 C1151.16714,615.032524 1158.19966,608 1166.87472,608 Z M1105.97143,610 C1098.40095,610 1092.26385,616.137093 1092.26385,623.707581 C1092.26385,631.278069 1098.40095,637.415162 1105.97143,637.415162 C1113.54192,637.415162 1119.67902,631.278069 1119.67902,623.707581 C1119.67902,616.137093 1113.54192,610 1105.97143,610 Z M1227.778,610 C1220.20751,610 1214.07042,616.137093 1214.07042,623.707581 C1214.07042,631.278069 1220.20751,637.415162 1227.778,637.415162 C1235.34849,637.415162 1241.48558,631.278069 1241.48558,623.707581 C1241.48558,616.137093 1235.34849,610 1227.778,610 Z M1227.778,549.5 C1236.45306,549.5 1243.48558,556.532524 1243.48558,565.207581 C1243.48558,573.882638 1236.45306,580.915162 1227.778,580.915162 C1219.10294,580.915162 1212.07042,573.882638 1212.07042,565.207581 C1212.07042,556.532524 1219.10294,549.5 1227.778,549.5 Z M1288.68128,549.5 C1297.35634,549.5 1304.38886,556.532524 1304.38886,565.207581 C1304.38886,573.882638 1297.35634,580.915162 1288.68128,580.915162 C1280.00623,580.915162 1272.9737,573.882638 1272.9737,565.207581 C1272.9737,556.532524 1280.00623,549.5 1288.68128,549.5 Z M1045.06815,549.5 C1053.74321,549.5 1060.77573,556.532524 1060.77573,565.207581 C1060.77573,573.882638 1053.74321,580.915162 1045.06815,580.915162 C1036.39309,580.915162 1029.36057,573.882638 1029.36057,565.207581 C1029.36057,556.532524 1036.39309,549.5 1045.06815,549.5 Z M1105.97143,549.5 C1114.64649,549.5 1121.67902,556.532524 1121.67902,565.207581 C1121.67902,573.882638 1114.64649,580.915162 1105.97143,580.915162 C1097.29638,580.915162 1090.26385,573.882638 1090.26385,565.207581 C1090.26385,556.532524 1097.29638,549.5 1105.97143,549.5 Z M1166.87472,549.5 C1175.54977,549.5 1182.5823,556.532524 1182.5823,565.207581 C1182.5823,573.882638 1175.54977,580.915162 1166.87472,580.915162 C1158.19966,580.915162 1151.16714,573.882638 1151.16714,565.207581 C1151.16714,556.532524 1158.19966,549.5 1166.87472,549.5 Z M1227.778,551.5 C1220.20751,551.5 1214.07042,557.637093 1214.07042,565.207581 C1214.07042,572.778069 1220.20751,578.915162 1227.778,578.915162 C1235.34849,578.915162 1241.48558,572.778069 1241.48558,565.207581 C1241.48558,557.637093 1235.34849,551.5 1227.778,551.5 Z M1105.97143,551.5 C1098.40095,551.5 1092.26385,557.637093 1092.26385,565.207581 C1092.26385,572.778069 1098.40095,578.915162 1105.97143,578.915162 C1113.54192,578.915162 1119.67902,572.778069 1119.67902,565.207581 C1119.67902,557.637093 1113.54192,551.5 1105.97143,551.5 Z M1271.71348,412 C1284.289,412 1294.50729,422.092531 1294.7104,434.619653 L1294.71348,435 L1294.71353,449.292297 C1299.78406,449.790922 1303.77262,454.107821 1303.91345,459.3844 L1303.9173,459.673148 L1303.9173,491.056236 L1123.38886,491.056236 L1123.38886,459.673148 C1123.38886,454.272702 1127.4175,449.81321 1132.57509,449.294561 L1132.57519,435 C1132.57519,422.424476 1142.66773,412.20619 1155.19485,412.003081 L1155.57519,412 L1271.71348,412 Z M1092.1623,412 L1092.1623,422.972973 L1088.20638,422.972 L1088.20687,465.803455 L1057.95238,465.803 L1057.95284,481.107472 C1059.98064,481.550524 1061.51511,483.312953 1061.61139,485.449884 L1061.61619,485.663345 C1061.61619,488.238839 1059.52834,490.32669 1056.95284,490.32669 C1054.37735,490.32669 1052.2895,488.238839 1052.2895,485.663345 C1052.2895,483.431109 1053.8579,481.565194 1055.95284,481.107472 L1055.95238,465.803 L1025.15288,465.803455 L1025.15238,422.972 L1021.74338,422.972973 L1021.74338,412 L1092.1623,412 Z M1283.54386,467.152 L1143.76086,467.152 L1143.76086,489.056 L1283.54386,489.056 L1283.54386,467.152 Z M1133.57519,451.244225 L1133.55731,451.244225 C1129.13935,451.256225 1125.52497,454.888275 1125.39262,459.415927 L1125.38886,459.673148 L1125.38886,489.056 L1141.76086,489.056 L1141.76152,459.673148 C1141.76152,459.330957 1141.74098,458.989386 1141.70053,458.649424 L1141.65346,458.310034 L1141.59326,457.971937 C1140.81565,454.081816 1137.46795,451.244225 1133.57519,451.244225 Z M1293.73097,451.244229 C1289.30631,451.244229 1285.68115,454.883162 1285.54841,459.415656 L1285.54464,459.673148 L1285.54386,489.056 L1301.91686,489.056 L1301.9173,459.673148 C1301.9173,455.192829 1298.50534,451.525156 1294.22818,451.259622 L1293.98048,451.248096 L1293.73097,451.244229 Z M1056.95284,483 C1055.48192,483 1054.2895,484.19242 1054.2895,485.663345 C1054.2895,487.13427 1055.48192,488.32669 1056.95284,488.32669 C1058.42377,488.32669 1059.61619,487.13427 1059.61619,485.663345 C1059.61619,484.19242 1058.42377,483 1056.95284,483 Z M1271.71348,414 L1155.57519,414 C1144.09437,414 1134.76536,423.21304 1134.57806,434.649226 L1134.57519,435 L1134.57528,449.294316 C1138.99656,449.739129 1142.65932,453.101796 1143.55486,457.581917 C1143.66411,458.134363 1143.73083,458.691855 1143.75314,459.252296 L1143.76152,459.673148 L1143.76086,465.152 L1283.54386,465.152 L1283.54464,459.673148 C1283.54464,454.279762 1287.56602,449.820379 1292.71313,449.29582 L1292.71348,435 C1292.71348,423.519172 1283.50044,414.190164 1272.06425,414.00287 L1271.71348,414 Z M1086.20638,422.972 L1027.15238,422.972 L1027.15238,463.803 L1086.20638,463.803 L1086.20638,422.972 Z M1090.16138,414 L1023.74338,414 L1023.74338,420.972 L1090.16138,420.972 L1090.16138,414 Z" id="Combined-Shape"></path>
        </g>
    </g>
</svg>